<svg xmlns="http://www.w3.org/2000/svg" xmlns:xlink="http://www.w3.org/1999/xlink" width="840" height="365.65"><rect width="840" height="365.65" rx="0" ry="0" class="a"></rect><svg height="325.65" viewBox="0 0 80 32.565" width="800" x="20" xmlns="http://www.w3.org/2000/svg" xmlns:xlink="http://www.w3.org/1999/xlink" y="20"><style>.a{fill:rgb(40,45,53)}.b{font-family:'Fira Code',Monaco,Consolas,Menlo,'Bitstream Vera Sans Mono','Powerline Symbols',monospace}.c{fill:transparent}.d{fill:rgb(148,148,148);white-space:pre}.e{fill:rgb(185,192,203);white-space:pre}.f{fill:rgb(148,148,148);font-style:italic;white-space:pre}.g{fill:rgb(188,188,188);white-space:pre}.h{fill:rgb(0,95,95);white-space:pre}.i{fill:rgb(255,215,175);white-space:pre}.j{white-space:pre}.k{fill:rgb(185,191,202);white-space:pre}.l{fill:rgb(208,208,208);white-space:pre}.m{fill:rgb(95,135,135);white-space:pre}.n{fill:rgb(255,215,215);white-space:pre}</style><g font-family="&#x27;Fira Code&#x27;,Monaco,Consolas,Menlo,&#x27;Bitstream Vera Sans Mono&#x27;,&#x27;Powerline Symbols&#x27;,monospace" font-size="1.67" class="b"><defs><symbol id="a"><rect height="15" width="80" x="0" y="0" class="c"></rect></symbol></defs><rect height="32.565" width="80" class="a"></rect><svg x="0" y="0" width="80"><svg x="0"><use xlink:href="#a"></use><text font-size="1.67" x="0" y="1.67" class="d">#</text><text font-size="1.67" x="2.004" y="1.67" class="d">A</text><text font-size="1.67" x="4.008" y="1.67" class="d">tibble:</text><text font-size="1.67" x="12.024" y="1.67" class="d">36</text><text font-size="1.67" x="15.029999999999998" y="1.67" class="d">×</text><text font-size="1.67" x="17.034" y="1.67" class="d">2</text><text font-size="1.67" x="3.006" y="3.8409999999999997" class="e">palette</text><text font-size="1.67" x="11.021999999999998" y="3.8409999999999997" class="e">colour</text><text font-size="1.67" x="3.006" y="6.012" class="f">&lt;chr&gt;</text><text font-size="1.67" x="11.021999999999998" y="6.012" class="f">&lt;colour&gt;</text><text font-size="1.67" x="1.002" y="8.183" class="g">1</text><text font-size="1.67" x="3.006" y="8.183" class="e">base</text><text font-size="1.67" x="11.021999999999998" y="8.183" class="h">•</text><text font-size="1.67" x="13.026" y="8.183" class="e">#034638</text><text font-size="1.67" x="1.002" y="10.354" class="g">2</text><text font-size="1.67" x="3.006" y="10.354" class="e">base</text><text font-size="1.67" x="11.021999999999998" y="10.354" class="i">•</text><text font-size="1.67" x="13.026" y="10.354" class="e">#ECBAA8</text><text font-size="1.67" x="1.002" y="12.525" class="g">3</text><text font-size="1.67" x="3.006" y="12.525" class="e">base</text><text font-size="1.67" x="11.021999999999998" y="12.525" class="j">•</text><text font-size="1.67" x="13.026" y="12.525" class="e">#000000</text><text font-size="1.67" x="1.002" y="14.696" class="g">4</text><text font-size="1.67" x="3.006" y="14.696" class="e">base</text><text font-size="1.67" x="11.021999999999998" y="14.696" class="k">•</text><text font-size="1.67" x="13.026" y="14.696" class="e">#FFFFFF</text><text font-size="1.67" x="1.002" y="16.866999999999997" class="g">5</text><text font-size="1.67" x="3.006" y="16.866999999999997" class="e">base</text><text font-size="1.67" x="11.021999999999998" y="16.866999999999997" class="l">•</text><text font-size="1.67" x="13.026" y="16.866999999999997" class="e">#D9D9D6</text><text font-size="1.67" x="1.002" y="19.037999999999997" class="g">6</text><text font-size="1.67" x="3.006" y="19.037999999999997" class="e">dark</text><text font-size="1.67" x="11.021999999999998" y="19.037999999999997" class="h">•</text><text font-size="1.67" x="13.026" y="19.037999999999997" class="e">#034638</text><text font-size="1.67" x="1.002" y="21.209000000000003" class="g">7</text><text font-size="1.67" x="3.006" y="21.209000000000003" class="e">dark</text><text font-size="1.67" x="11.021999999999998" y="21.209000000000003" class="i">•</text><text font-size="1.67" x="13.026" y="21.209000000000003" class="e">#ECBAA8</text><text font-size="1.67" x="1.002" y="23.380000000000003" class="g">8</text><text font-size="1.67" x="3.006" y="23.380000000000003" class="e">dark</text><text font-size="1.67" x="11.021999999999998" y="23.380000000000003" class="j">•</text><text font-size="1.67" x="13.026" y="23.380000000000003" class="e">#000000</text><text font-size="1.67" x="1.002" y="25.550999999999995" class="g">9</text><text font-size="1.67" x="3.006" y="25.550999999999995" class="e">dark</text><text font-size="1.67" x="11.021999999999998" y="25.550999999999995" class="m">•</text><text font-size="1.67" x="13.026" y="25.550999999999995" class="e">#3C685B</text><text font-size="1.67" x="0" y="27.722" class="g">10</text><text font-size="1.67" x="3.006" y="27.722" class="e">dark</text><text font-size="1.67" x="11.021999999999998" y="27.722" class="n">•</text><text font-size="1.67" x="13.026" y="27.722" class="e">#F1C8B9</text><text font-size="1.67" x="0" y="29.893" class="d">#</text><text font-size="1.67" x="2.004" y="29.893" class="d">ℹ</text><text font-size="1.67" x="4.008" y="29.893" class="d">26</text><text font-size="1.67" x="7.013999999999999" y="29.893" class="d">more</text><text font-size="1.67" x="12.024" y="29.893" class="d">rows</text><text font-size="1.67" x="0" y="32.064" class="d">#</text><text font-size="1.67" x="2.004" y="32.064" class="d">ℹ</text><text font-size="1.67" x="4.008" y="32.064" class="d">Use</text><text font-size="1.67" x="8.016" y="32.064" class="d">`print(n</text><text font-size="1.67" x="17.034" y="32.064" class="d">=</text><text font-size="1.67" x="19.037999999999997" y="32.064" class="d">...)`</text><text font-size="1.67" x="25.05" y="32.064" class="d">to</text><text font-size="1.67" x="28.055999999999997" y="32.064" class="d">see</text><text font-size="1.67" x="32.064" y="32.064" class="d">more</text><text font-size="1.67" x="37.074" y="32.064" class="d">rows</text></svg></svg></g></svg></svg>